<svg xmlns="http://www.w3.org/2000/svg" width="800" height="470" viewBox="0 0 800 470">
  <defs>
    <linearGradient id="bg" x1="0%" y1="0%" x2="100%" y2="100%">
      <stop offset="0%" style="stop-color:#1a1a2e"/>
      <stop offset="100%" style="stop-color:#0f3460"/>
    </linearGradient>
  </defs>
  <rect width="800" height="470" fill="url(#bg)"/>
  <rect x="50" y="120" width="50" height="50" rx="6" fill="#e94560"/>
  <rect x="108" y="120" width="50" height="50" rx="6" fill="#e94560"/>
  <rect x="166" y="120" width="50" height="50" rx="6" fill="#0f3460"/>
  <rect x="50" y="178" width="50" height="50" rx="6" fill="#0f3460"/>
  <rect x="108" y="178" width="50" height="50" rx="6" fill="#53a653"/>
  <rect x="166" y="178" width="50" height="50" rx="6" fill="#53a653"/>
  <rect x="50" y="236" width="50" height="50" rx="6" fill="#53a653"/>
  <rect x="108" y="236" width="50" height="50" rx="6" fill="#f5a623"/>
  <rect x="166" y="236" width="50" height="50" rx="6" fill="#9b59b6"/>
  <rect x="224" y="236" width="50" height="50" rx="6" fill="#9b59b6"/>
  <rect x="50" y="294" width="50" height="50" rx="6" fill="#f5a623"/>
  <rect x="108" y="294" width="50" height="50" rx="6" fill="#e94560"/>
  <rect x="166" y="294" width="50" height="50" rx="6" fill="#0f3460"/>
  <rect x="224" y="294" width="50" height="50" rx="6" fill="#53a653"/>
  <rect x="282" y="294" width="50" height="50" rx="6" fill="#f5a623"/>
  <text x="400" y="200" text-anchor="middle" font-family="Arial,sans-serif" font-weight="bold" font-size="52" fill="#fff" letter-spacing="3">КЛИКИНАТОР</text>
  <text x="400" y="250" text-anchor="middle" font-family="Arial,sans-serif" font-size="20" fill="#aaa">Классическая головоломка</text>
  <circle cx="560" cy="130" r="30" fill="#e94560" opacity="0.5"/>
  <circle cx="630" cy="190" r="22" fill="#53a653" opacity="0.5"/>
  <circle cx="520" cy="240" r="26" fill="#f5a623" opacity="0.5"/>
  <circle cx="670" cy="120" r="18" fill="#9b59b6" opacity="0.5"/>
  <circle cx="700" cy="220" r="35" fill="#0f3460" opacity="0.5"/>
  <circle cx="590" cy="310" r="22" fill="#e94560" opacity="0.35"/>
  <circle cx="680" cy="370" r="26" fill="#53a653" opacity="0.35"/>
  <circle cx="510" cy="350" r="18" fill="#f5a623" opacity="0.35"/>
</svg>
